<svg width="176" height="66" viewBox="0 0 176 66" fill="none" xmlns="http://www.w3.org/2000/svg">
<path d="M25.8 28.68V29.48C25.8 32.4933 25.04 34.9067 23.52 36.72C22.0267 38.5067 19.8933 39.4 17.12 39.4C14.3733 39.4 12.24 38.5067 10.72 36.72C9.22667 34.9067 8.48 32.4933 8.48 29.48V28.68C8.48 25.6933 9.22667 23.3067 10.72 21.52C12.2133 19.7067 14.3467 18.8 17.12 18.8C19.8933 18.8 22.0267 19.7067 23.52 21.52C25.04 23.3067 25.8 25.6933 25.8 28.68ZM22.2 27.88C22.2 25.1067 21.76 23.12 20.88 21.92C20.0267 20.6933 18.7733 20.08 17.12 20.08C15.4933 20.08 14.24 20.6933 13.36 21.92C12.5067 23.12 12.08 25.1067 12.08 27.88V30.28C12.08 33.08 12.5067 35.0933 13.36 36.32C14.24 37.52 15.4933 38.12 17.12 38.12C18.7733 38.12 20.0267 37.52 20.88 36.32C21.76 35.0933 22.2 33.08 22.2 30.28V27.88ZM51.0656 37.96V39H44.9056V35.8C43.9723 37.0533 42.9056 37.9733 41.7056 38.56C40.5323 39.12 39.359 39.4 38.1856 39.4C36.2923 39.4 34.8123 38.8 33.7456 37.6C32.7056 36.3733 32.1856 34.6533 32.1856 32.44V22.44C32.1856 21.5067 32.1456 20.96 32.0656 20.8C31.9856 20.64 31.7323 20.5333 31.3056 20.48L29.1056 20.28V19.2H35.4656V32.4C35.4656 34.3733 35.759 35.7733 36.3456 36.6C36.959 37.4 37.839 37.8 38.9856 37.8C39.839 37.8 40.7723 37.5333 41.7856 37C42.8256 36.4667 43.799 35.44 44.7056 33.92V22.44C44.7056 21.5067 44.6656 20.96 44.5856 20.8C44.5056 20.6133 44.2523 20.5067 43.8256 20.48L40.8256 20.28V19.2H47.9856V35.76C47.9856 36.6933 48.0256 37.24 48.1056 37.4C48.1856 37.56 48.439 37.6667 48.8656 37.72L51.0656 37.96ZM66.8109 34.92C66.4109 36.4667 65.7843 37.6 64.9309 38.32C64.0776 39.04 62.9843 39.4 61.6509 39.4C60.3709 39.4 59.3309 39.12 58.5309 38.56C57.7309 37.9733 57.1443 37.2133 56.7709 36.28C56.3976 35.3467 56.2109 34.3733 56.2109 33.36V22.44C56.2109 21.5067 56.1709 20.96 56.0909 20.8C56.0376 20.64 55.7843 20.5333 55.3309 20.48L53.1309 20.28V19.2H56.2109V13.96L59.4909 13.28V19.2H66.0109V20.48H59.4909V33.68C59.4909 35.36 59.7176 36.52 60.1709 37.16C60.6509 37.8 61.2776 38.12 62.0509 38.12C62.8243 38.12 63.4109 37.8267 63.8109 37.24C64.2376 36.6533 64.5443 35.6933 64.7309 34.36L66.8109 34.92ZM68.7997 10.48V9.4H75.1597V35.76C75.1597 36.6933 75.1997 37.24 75.2797 37.4C75.3597 37.56 75.613 37.6667 76.0397 37.72L78.2397 37.96V39H68.7997V37.96L70.9997 37.72C71.4264 37.6667 71.6797 37.56 71.7597 37.4C71.8397 37.24 71.8797 36.6933 71.8797 35.76V12.64C71.8797 11.7067 71.8397 11.16 71.7597 11C71.6797 10.84 71.4264 10.7333 70.9997 10.68L68.7997 10.48ZM85.4784 14.72C84.8384 14.72 84.3051 14.52 83.8784 14.12C83.4784 13.6933 83.2784 13.1467 83.2784 12.48C83.2784 11.84 83.4784 11.32 83.8784 10.92C84.3051 10.52 84.8384 10.32 85.4784 10.32C86.1184 10.32 86.6384 10.52 87.0384 10.92C87.4651 11.32 87.6784 11.84 87.6784 12.48C87.6784 13.1467 87.4651 13.6933 87.0384 14.12C86.6384 14.52 86.1184 14.72 85.4784 14.72ZM80.7984 20.28V19.2H87.1584V35.76C87.1584 36.6933 87.1984 37.24 87.2784 37.4C87.3584 37.56 87.6118 37.6667 88.0384 37.72L90.2384 37.96V39H80.7984V37.96L82.9984 37.72C83.4251 37.6667 83.6784 37.56 83.7584 37.4C83.8384 37.24 83.8784 36.6933 83.8784 35.76V22.44C83.8784 21.5067 83.8384 20.96 83.7584 20.8C83.6784 20.64 83.4251 20.5333 82.9984 20.48L80.7984 20.28ZM109.792 34.44C109.312 36.2533 108.405 37.5333 107.072 38.28C105.765 39.0267 104.312 39.4 102.712 39.4C99.7516 39.4 97.5382 38.5067 96.0716 36.72C94.6049 34.9067 93.8716 32.4933 93.8716 29.48V28.68C93.8716 25.6933 94.5782 23.3067 95.9916 21.52C97.4049 19.7067 99.4582 18.8 102.152 18.8C103.592 18.8 104.898 19.0933 106.072 19.68C107.272 20.2667 108.218 21.1333 108.912 22.28C109.632 23.4267 109.992 24.8533 109.992 26.56C109.992 27.36 109.912 28.2 109.752 29.08H97.4716V30.28C97.4716 33.08 97.8982 35.0933 98.7516 36.32C99.6316 37.52 101.045 38.12 102.992 38.12C104.218 38.12 105.232 37.8 106.032 37.16C106.858 36.52 107.405 35.4133 107.672 33.84L109.792 34.44ZM102.152 20.08C100.578 20.08 99.4049 20.68 98.6316 21.88C97.8582 23.08 97.4716 25.0533 97.4716 27.8H106.472V27.68C106.525 27.3333 106.565 27 106.592 26.68C106.618 26.3333 106.632 26.0267 106.632 25.76C106.632 23.76 106.218 22.32 105.392 21.44C104.565 20.5333 103.485 20.08 102.152 20.08ZM113.767 20.28V19.2H119.927V22.4C120.861 21.1467 121.794 20.24 122.727 19.68C123.687 19.0933 124.661 18.8 125.647 18.8C126.501 18.8 127.301 19.0533 128.047 19.56C128.794 20.0667 129.421 20.88 129.927 22L127.327 23.56C126.927 22.6 126.474 21.9333 125.967 21.56C125.461 21.1867 124.901 21 124.287 21C123.621 21 122.954 21.2133 122.287 21.64C121.647 22.0667 120.927 22.8667 120.127 24.04V35.76C120.127 36.6933 120.167 37.2533 120.247 37.44C120.327 37.6 120.581 37.6933 121.007 37.72L124.007 37.96V39H113.767V37.96L115.967 37.72C116.394 37.6667 116.647 37.56 116.727 37.4C116.807 37.24 116.847 36.6933 116.847 35.76V22.44C116.847 21.5067 116.807 20.96 116.727 20.8C116.647 20.64 116.394 20.5333 115.967 20.48L113.767 20.28Z" fill="black"/>
<path d="M92 53.2278C80.5262 61.1006 68.5541 64.2124 52.0716 64.487C35.5895 64.7615 19.6195 60.7122 7.56934 53.2278" stroke="#1C4B78" stroke-width="2"/>
<path d="M87.877 55.8635C99.6896 47.9574 115.74 43.5 132.5 43.5C147.5 45.5 151.5 47.5 163 62" stroke="#1C4B78" stroke-width="2"/>
<circle cx="85.5" cy="12.5" r="2.5" fill="#1C4B78"/>
<circle cx="139.5" cy="53.5" r="2.5" fill="black"/>
</svg>
